<?xml version="1.0" encoding="UTF-8"?>
<svg width="23px" height="6px" viewBox="0 0 23 6" version="1.1" xmlns="http://www.w3.org/2000/svg" xmlns:xlink="http://www.w3.org/1999/xlink">
    <!-- Generator: sketchtool 57.1 (101010) - https://sketch.com -->
    <title>2A030603-12CC-46FB-AFEC-2A081EA86EAD</title>
    <desc>Created with sketchtool.</desc>
    <g id="Page-1" stroke="none" stroke-width="1" fill="none" fill-rule="evenodd">
        <g id="Homepage---Tennis" transform="translate(-1211.000000, -1085.000000)" fill="#29304A">
            <g id="Group-7" transform="translate(1038.000000, 1061.000000)">
                <g id="Group-6" transform="translate(38.000000, 15.000000)">
                    <g id="Path-3" transform="translate(135.000000, 9.000000)">
                        <path d="M22.9081585,2.69988234 L20.4272469,0.128088207 C20.2624978,-0.0426960689 20.0137616,-0.0426960689 19.8490291,0.128088207 C19.68428,0.298872483 19.68428,0.556720562 19.8490291,0.727487693 L21.6273465,2.57094973 L0.41348526,2.57094973 C0.164749067,2.57094973 0,2.741734 0,2.99958208 C0,3.25743016 0.164749067,3.42821444 0.41348526,3.42821444 L21.6256926,3.42821444 L19.8473752,5.27167647 C19.6826261,5.44246075 19.6826261,5.70030883 19.8473752,5.87107596 C19.9297497,5.9564681 20.0541178,6 20.1364923,6 C20.2188669,6 20.343235,5.9564681 20.4256095,5.87107596 L22.9065211,3.29928183 C23.0308892,3.12849755 23.0308892,2.87064947 22.9081361,2.69988234 L22.9081585,2.69988234 Z" id="Path"></path>
                    </g>
                </g>
            </g>
        </g>
    </g>
</svg>